<svg xmlns="http://www.w3.org/2000/svg" width="1280" height="258" viewBox="0 0 1280 258">
  <defs>
    <style>
      .cls-1 {
        fill: #f9f9f9;
        fill-rule: evenodd;
      }
    </style>
  </defs>
  <path id="Forma_1" data-name="Forma 1" class="cls-1" d="M0,83.5S98.5,51.5,210,43c0,0,62.25-8,174-1,0,0,78,4.5,162,20,0,0,125,30,203,47,0,0,78.5,14.5,194,20,0,0,135,2.5,220-15,0,0,95-19,117-30.5v91s-106,37-246,43.5c0,0-135,5.5-252-13,0,0-76-14.5-212-48,0,0-130-24.5-215-27,0,0-54-3.5-202,11,0,0-88.5,11.5-153,33.5v-91Z"/>
</svg>
